<svg xmlns="http://www.w3.org/2000/svg" viewBox="0 0 41.52 41.52"><g data-name="Capa 2"><g data-name="Botones redes" fill="#5596cc"><path d="M20.76 0A20.76 20.76 0 1 1 6.08 6.08 20.66 20.66 0 0 1 20.76 0zM34.3 7.23a19.16 19.16 0 1 0 5.6 13.53 19.12 19.12 0 0 0-5.6-13.53z"/><path d="M15.45 20.76a5.32 5.32 0 1 1 5.31 5.32 5.32 5.32 0 0 1-5.31-5.32zm10.81-10.4h-11a4.93 4.93 0 0 0-4.92 4.92v11a4.93 4.93 0 0 0 4.92 4.91h11a4.93 4.93 0 0 0 4.92-4.91v-11a4.92 4.92 0 0 0-4.92-4.92zm-11 1.23h11A3.69 3.69 0 0 1 30 15.28v11a3.69 3.69 0 0 1-3.69 3.68h-11a3.69 3.69 0 0 1-3.69-3.68v-11a3.69 3.69 0 0 1 3.69-3.69zm12.07 1.55a1.08 1.08 0 1 0 1.08 1.08 1.08 1.08 0 0 0-1.08-1.08zm.12 7.62a6.71 6.71 0 1 0-6.71 6.71 6.71 6.71 0 0 0 6.71-6.71z" fill-rule="evenodd"/></g></g></svg>